<svg version="1.2" xmlns="http://www.w3.org/2000/svg" viewBox="0 0 400 400" width="496" height="496" fill="#2f307f">
    <path class="b" d="m320.3 268c-2.8-0.9-5.9-1.1-7.3-2.7-10.7-11.9-21-24.1-31.4-36.2-3.1-3.5-6.2-6.9-9.4-10.2-0.8-0.9-2.1-1.8-3.2-1.8-8.2-0.2-16.3-0.1-24.8-0.1 0 17 0 33.6 0 51.1-57.1 0-113.9 0-170.9 0q0-75.7 0-152.7c38 0 76 0 114.4 0 0 9 0 18 0 27.4-28.4 0-56.7 0-85.3 0 0 11.8 0 23.2 0 35.1 27.3 0 54.7 0 82.3 0 0 9.1 0 17.7 0 26.9-27.3 0-54.7 0-82.4 0 0 11.9 0 23.3 0 34.9 37.4 0 74.7 0 112.5 0 0-41.3 0-82.6 0-124.7 2.3 0 4 0 5.8 0 24.3 0 48.6-0.5 72.9 0.1 26.3 0.7 46 16.9 49.1 42.5 3.3 26.5-5.5 48.3-36.9 57 15.5 17.5 30.8 34.8 46.1 52.1q-0.6 0.6-1.1 1.3c-10 0-20 0-30.4 0zm-12.4-85.7c5-6.7 6.6-14.4 4.5-22.3-3-10.9-10.4-16.8-21.8-17-15.3-0.2-30.7 0-46.3 0 0 15.5 0 31.6 0 48 14.1 0 27.9 0.4 41.7-0.2 7.8-0.3 15.7-1.7 21.9-8.5z" />
</svg>